<svg xmlns="http://www.w3.org/2000/svg" width="148" height="21" viewBox="0 0 148 21" fill="none">
  <path d="M10.2275 20.0423C7.34746 20.0423 4.93374 19.0823 3.04117 17.1897C1.1486 15.2697 0.188599 12.9109 0.188599 10.0857C0.188599 7.26058 1.1486 4.90172 3.04117 3.00915C4.93374 1.08915 7.34746 0.12915 10.2275 0.12915C13.7109 0.12915 16.8377 1.88458 18.4835 4.70972L15.7406 6.30058C14.7257 4.40801 12.6412 3.20115 10.2275 3.20115C8.17031 3.20115 6.5246 3.85944 5.23546 5.14858C3.97374 6.43772 3.34288 8.08344 3.34288 10.0857C3.34288 12.088 3.97374 13.7337 5.23546 15.0229C6.5246 16.312 8.17031 16.9703 10.2275 16.9703C12.6412 16.9703 14.7532 15.7634 15.7406 13.8709L18.4835 15.4343C17.688 16.8332 16.536 17.9577 15.0549 18.808C13.6012 19.6309 11.9829 20.0423 10.2275 20.0423Z" fill="#F2C946"/>
  <path d="M26.8097 20.0423C24.8075 20.0423 23.0795 19.3566 21.6806 17.9577C20.2817 16.5589 19.5686 14.8583 19.5686 12.8286C19.5686 10.7989 20.2817 9.0983 21.6806 7.69944C23.0795 6.30058 24.8075 5.61487 26.8097 5.61487C28.8395 5.61487 30.54 6.30058 31.9389 7.69944C33.3377 9.0983 34.0509 10.7989 34.0509 12.8286C34.0509 14.8583 33.3377 16.5589 31.9389 17.9577C30.54 19.3566 28.8395 20.0423 26.8097 20.0423ZM23.7652 15.928C24.588 16.7509 25.6029 17.1623 26.8097 17.1623C28.0166 17.1623 29.0315 16.7509 29.8543 15.928C30.6772 15.1052 31.0886 14.0629 31.0886 12.8286C31.0886 11.5943 30.6772 10.552 29.8543 9.72915C29.0315 8.90629 28.0166 8.49487 26.8097 8.49487C25.6029 8.49487 24.588 8.90629 23.7652 9.72915C22.9423 10.552 22.5309 11.5943 22.5309 12.8286C22.5309 14.0629 22.9423 15.1052 23.7652 15.928Z" fill="#F2C946"/>
  <path d="M43.3946 5.61487C46.5489 5.61487 48.6609 7.75429 48.6609 11.2652V19.6857H45.6986V11.5669C45.6986 9.50972 44.5192 8.38515 42.6266 8.38515C40.542 8.38515 39.1432 9.67429 39.1432 12.3349V19.6857H36.1809V5.97144H39.1432V7.72687C40.0483 6.32801 41.4472 5.61487 43.3946 5.61487Z" fill="#F2C946"/>
  <path d="M57.7751 20.0423C55.718 20.0423 53.99 19.3566 52.5911 17.9577C51.2197 16.5589 50.534 14.8583 50.534 12.8286C50.534 10.7714 51.2197 9.07087 52.5911 7.69944C53.99 6.30058 55.718 5.61487 57.7751 5.61487C60.4357 5.61487 62.7945 6.98629 63.8917 9.15315L61.3408 10.6343C60.71 9.31772 59.3934 8.52229 57.7477 8.52229C56.5408 8.52229 55.526 8.93372 54.7031 9.75658C53.9077 10.5794 53.4962 11.5943 53.4962 12.8286C53.4962 14.0629 53.9077 15.0777 54.7031 15.9006C55.526 16.7234 56.5408 17.1349 57.7477 17.1349C59.366 17.1349 60.7374 16.312 61.3957 15.0229L63.9465 16.4766C62.7671 18.6709 60.4357 20.0423 57.7751 20.0423Z" fill="#F2C946"/>
  <path d="M71.798 20.0423C69.7957 20.0423 68.0677 19.3566 66.6688 17.9577C65.27 16.5589 64.5568 14.8583 64.5568 12.8286C64.5568 10.7989 65.27 9.0983 66.6688 7.69944C68.0677 6.30058 69.7957 5.61487 71.798 5.61487C73.8277 5.61487 75.5282 6.30058 76.9271 7.69944C78.326 9.0983 79.0391 10.7989 79.0391 12.8286C79.0391 14.8583 78.326 16.5589 76.9271 17.9577C75.5282 19.3566 73.8277 20.0423 71.798 20.0423ZM68.7534 15.928C69.5762 16.7509 70.5911 17.1623 71.798 17.1623C73.0048 17.1623 74.0197 16.7509 74.8425 15.928C75.6654 15.1052 76.0768 14.0629 76.0768 12.8286C76.0768 11.5943 75.6654 10.552 74.8425 9.72915C74.0197 8.90629 73.0048 8.49487 71.798 8.49487C70.5911 8.49487 69.5762 8.90629 68.7534 9.72915C67.9305 10.552 67.5191 11.5943 67.5191 12.8286C67.5191 14.0629 67.9305 15.1052 68.7534 15.928Z" fill="#F2C946"/>
  <path d="M84.1314 5.97144V8.27544C84.872 6.57487 86.2982 5.72458 88.3554 5.72458V8.93372C87.2308 8.85144 86.2434 9.12572 85.3931 9.75658C84.5428 10.36 84.1314 11.3749 84.1314 12.7737V19.6857H81.1691V5.97144H84.1314Z" fill="#F2C946"/>
  <path d="M100.214 7.91887V0.485722H103.177V19.6857H100.214V17.7109C99.0898 19.2743 97.499 20.0423 95.4144 20.0423C93.5218 20.0423 91.931 19.3566 90.587 17.9577C89.243 16.5589 88.5847 14.8309 88.5847 12.8286C88.5847 10.7989 89.243 9.0983 90.587 7.69944C91.931 6.30058 93.5218 5.61487 95.4144 5.61487C97.499 5.61487 99.0898 6.38287 100.214 7.91887ZM92.7812 15.9829C93.6041 16.8057 94.6464 17.2172 95.8807 17.2172C97.115 17.2172 98.1572 16.8057 98.9801 15.9829C99.803 15.1326 100.214 14.0903 100.214 12.8286C100.214 11.5669 99.803 10.5246 98.9801 9.70172C98.1572 8.85144 97.115 8.44001 95.8807 8.44001C94.6464 8.44001 93.6041 8.85144 92.7812 9.70172C91.9584 10.5246 91.547 11.5669 91.547 12.8286C91.547 14.0903 91.9584 15.1326 92.7812 15.9829Z" fill="#F2C946"/>
  <path d="M108.879 3.36572C108.138 4.10629 106.986 4.10629 106.218 3.36572C105.477 2.59772 105.477 1.44572 106.218 0.705151C106.959 -0.0628488 108.165 -0.0628488 108.906 0.705151C109.647 1.44572 109.647 2.59772 108.879 3.36572ZM109.043 19.6857H106.081V5.97144H109.043V19.6857Z" fill="#F2C946"/>
  <path d="M121.178 13.3223V5.97144H124.14V19.6857H121.178V17.9303C120.272 19.3292 118.874 20.0423 116.926 20.0423C113.772 20.0423 111.66 17.9029 111.66 14.392V5.97144H114.622V14.0903C114.622 16.1474 115.802 17.272 117.694 17.272C119.779 17.272 121.178 15.9829 121.178 13.3223Z" fill="#F2C946"/>
  <path d="M142.031 5.61487C145.131 5.61487 147.215 7.78172 147.215 11.1829V19.6857H144.253V11.3749C144.253 9.4823 143.238 8.38515 141.592 8.38515C139.755 8.38515 138.603 9.59201 138.603 12.0057V19.6857H135.64V11.3749C135.64 9.4823 134.708 8.38515 133.062 8.38515C131.279 8.38515 130.017 9.61944 130.017 12.0057V19.6857H127.055V5.97144H130.017V7.61715C130.895 6.27315 132.212 5.61487 133.94 5.61487C135.695 5.61487 136.984 6.32801 137.835 7.78172C138.74 6.32801 140.139 5.61487 142.031 5.61487Z" fill="#F2C946"/>
</svg>