<svg width="158" height="33" viewBox="0 0 158 33" fill="none" xmlns="http://www.w3.org/2000/svg">
<g id="Group">
<path id="Vector" d="M122.278 12.2453C122.26 12.2453 122.249 12.2453 122.231 12.2453H119.685C119.685 12.2453 119.667 12.263 119.667 12.2924V19.1545C119.667 19.1721 119.685 19.1957 119.697 19.2015H122.237C123.695 19.2133 124.689 18.9311 125.289 18.3313C125.83 17.7844 126.094 16.9318 126.094 15.7205C126.094 14.5268 125.835 13.6801 125.295 13.1391C124.701 12.5393 123.713 12.2453 122.278 12.2453ZM122.319 20.9832C122.284 20.9832 122.254 20.9832 122.219 20.9832H119.679C118.691 20.9832 117.886 20.1659 117.886 19.1545V12.2924C117.886 11.2868 118.691 10.4636 119.679 10.4636H122.219C124.13 10.4342 125.594 10.9105 126.535 11.8572C127.411 12.7392 127.858 14.0388 127.858 15.7146C127.858 17.3905 127.417 18.6841 126.541 19.572C125.606 20.5246 124.224 20.9832 122.319 20.9832ZM49.9462 21.0361C46.5769 21.0361 44.3071 18.8958 44.3071 15.7146C44.3071 12.5805 46.6239 10.3931 49.9462 10.3931C51.5809 10.3931 52.9804 10.8811 53.9917 11.8043C54.1681 11.9631 54.2681 12.1806 54.2857 12.4217C54.2975 12.6628 54.2211 12.8921 54.0623 13.0744C53.9035 13.2508 53.686 13.3567 53.4508 13.3743C53.2097 13.3919 52.9804 13.3096 52.804 13.145C52.1277 12.5276 51.1399 12.1983 49.9521 12.1983C47.5353 12.1983 46.0947 13.5095 46.0947 15.7087C46.0947 17.9079 47.5353 19.2192 49.9521 19.2192C51.1457 19.2192 52.1336 18.8899 52.804 18.2725C52.9804 18.1137 53.2097 18.0314 53.4508 18.0431C53.686 18.0608 53.9035 18.1608 54.0623 18.343C54.3857 18.7135 54.3563 19.278 53.9917 19.6131C52.9921 20.5481 51.5926 21.0361 49.9462 21.0361ZM61.73 12.2042C59.3133 12.2042 57.8726 13.5154 57.8726 15.7146C57.8726 17.9197 59.3133 19.2368 61.73 19.2368C64.1468 19.2368 65.5874 17.9197 65.5874 15.7146C65.5874 13.5213 64.1468 12.2042 61.73 12.2042ZM61.73 21.0361C58.3607 21.0361 56.091 18.8958 56.091 15.7146C56.091 12.5805 58.4077 10.3931 61.73 10.3931C65.0994 10.3931 67.3632 12.5276 67.3632 15.7146C67.3632 18.9016 65.0994 21.0361 61.73 21.0361ZM77.6535 21.0361C77.0184 21.0361 76.4422 20.7069 76.1129 20.1541L71.4499 12.2394C71.4323 12.2159 71.4205 12.21 71.4146 12.21L71.397 20.1424C71.397 20.6363 71.003 21.042 70.515 21.042C70.021 21.042 69.6212 20.6363 69.6212 20.1424V12.2277C69.6212 11.2222 70.4268 10.3989 71.4146 10.3989C72.0497 10.3989 72.626 10.74 72.967 11.3104L77.63 19.2251C77.6358 19.2368 77.6476 19.2427 77.6535 19.2427C77.6711 19.2427 77.6829 19.2309 77.6829 19.2074V11.3104C77.6829 10.7988 78.071 10.3989 78.5649 10.3989C79.0647 10.3989 79.4587 10.7988 79.4587 11.3104V19.2133C79.4587 20.2188 78.6531 21.0361 77.6535 21.0361ZM87.2734 21.0361C83.9041 21.0361 81.6344 18.8958 81.6344 15.7146C81.6344 12.5805 83.9511 10.3931 87.2734 10.3931C88.9081 10.3931 90.3076 10.8811 91.319 11.8043C91.4954 11.9631 91.6012 12.1806 91.613 12.4217C91.6247 12.6628 91.5483 12.8921 91.3895 13.0744C91.2308 13.2508 91.0132 13.3567 90.778 13.3743C90.5369 13.3919 90.3076 13.3096 90.1312 13.145C89.455 12.5276 88.4671 12.1983 87.2793 12.1983C84.8626 12.1983 83.4219 13.5095 83.4219 15.7087C83.4219 17.9079 84.8626 19.2192 87.2793 19.2192C88.473 19.2192 89.455 18.8899 90.1312 18.2725C90.3076 18.1137 90.5369 18.0314 90.778 18.0431C91.0132 18.0608 91.2308 18.1608 91.3895 18.343C91.7129 18.7135 91.6835 19.278 91.319 19.6131C90.3252 20.5481 88.9257 21.0361 87.2734 21.0361ZM99.0573 12.2042C96.6405 12.2042 95.1999 13.5154 95.1999 15.7146C95.1999 17.9197 96.6405 19.2368 99.0573 19.2368C101.474 19.2368 102.921 17.9197 102.921 15.7146C102.921 13.5213 101.474 12.2042 99.0573 12.2042ZM99.0573 21.0361C95.6879 21.0361 93.4241 18.8958 93.4241 15.7146C93.4241 12.5805 95.7408 10.3931 99.0573 10.3931C102.432 10.3931 104.696 12.5276 104.696 15.7146C104.696 18.9016 102.432 21.0361 99.0573 21.0361ZM131.122 21.0361C130.634 21.0361 130.24 20.6304 130.24 20.1365V11.3104C130.24 10.8106 130.634 10.3989 131.122 10.3989C131.616 10.3989 132.016 10.8047 132.016 11.3104V20.1424C132.016 20.6363 131.616 21.0361 131.122 21.0361ZM157.13 21.0361C156.636 21.0361 156.236 20.6304 156.236 20.1365V12.2277C156.212 12.21 156.201 12.2159 156.189 12.2277L154.072 15.7205C153.754 16.2732 153.172 16.6143 152.52 16.6143C151.89 16.6143 151.326 16.2909 150.979 15.7205L148.874 12.2394C148.862 12.2159 148.839 12.2042 148.833 12.2042L148.815 20.1365C148.815 20.6304 148.415 21.0361 147.921 21.0361C147.433 21.0361 147.039 20.6304 147.039 20.1365V12.2277C147.039 11.2222 147.845 10.3989 148.833 10.3989C149.456 10.3989 150.038 10.7341 150.385 11.3045L152.49 14.7855C152.508 14.8149 152.52 14.8208 152.525 14.8267C152.514 14.8208 152.543 14.7973 152.555 14.7797L154.654 11.3104C155.007 10.7341 155.571 10.4048 156.206 10.4048C157.194 10.4048 158 11.2222 158 12.2336V20.1424C158.012 20.6363 157.618 21.0361 157.13 21.0361ZM139.554 21.0361C138.013 21.0361 136.808 20.6069 135.973 19.766C135.126 18.9075 134.697 17.6551 134.697 16.0439V11.2986C134.697 10.8047 135.085 10.4048 135.567 10.4048C136.061 10.4048 136.461 10.8047 136.461 11.2986V16.0439C136.461 18.2607 137.425 19.2427 139.589 19.2427C141.782 19.2427 142.723 18.2842 142.735 16.038V11.2986C142.735 10.8047 143.129 10.4048 143.617 10.4048C144.105 10.4048 144.499 10.8047 144.499 11.2986V16.0439C144.499 19.2662 142.759 21.042 139.589 21.042C139.577 21.0361 139.566 21.0361 139.554 21.0361ZM114.763 21.042C114.522 21.042 114.287 20.9479 114.122 20.7657L109.789 16.3497C109.53 16.0851 109.459 15.697 109.606 15.3618C109.753 15.0266 110.059 14.8208 110.412 14.8208H112.252C113.046 14.8208 113.74 14.2093 113.74 13.5095C113.74 12.8333 113.034 12.2394 112.235 12.2394H108.736C108.742 12.2394 108.718 12.2688 108.718 12.2982V20.1424C108.718 20.6363 108.318 21.042 107.825 21.042C107.337 21.042 106.943 20.6363 106.943 20.1424V12.2924C106.943 11.2868 107.748 10.4636 108.736 10.4636H112.235C114.034 10.4636 115.498 11.8278 115.498 13.5037C115.498 15.0972 114.169 16.4555 112.529 16.5966L115.369 19.5014C115.557 19.6778 115.663 19.9248 115.651 20.1894C115.645 20.4305 115.533 20.6598 115.345 20.8186C115.187 20.9715 114.975 21.042 114.763 21.042Z" fill="#FBFBF9"/>
<path id="Vector_2" d="M4.82173 16.4379C4.82173 22.5239 9.74342 27.4632 15.8117 27.4632C17.4405 27.4632 18.9811 27.0986 20.3747 26.4577V31.6264C18.9282 32.0615 17.3994 32.2967 15.8176 32.2967C7.07971 32.2967 0 25.1935 0 16.432C0 7.67061 7.08559 0.567383 15.8176 0.567383C17.4053 0.567383 18.9341 0.802589 20.3747 1.23772V6.40638C18.9811 5.77132 17.4405 5.40087 15.8117 5.40087C9.74342 5.41263 4.82173 10.352 4.82173 16.4379ZM15.8176 23.1589C12.1131 23.1589 9.11424 20.1483 9.11424 16.4379C9.11424 12.7275 12.1131 9.7169 15.8176 9.7169C19.5221 9.7169 22.521 12.7275 22.521 16.4379C22.521 20.1483 19.5162 23.1589 15.8176 23.1589ZM30.1476 23.1589H24.5144C25.9432 21.3008 26.8076 18.9723 26.8076 16.4438C26.8076 13.9095 25.9432 11.5809 24.5144 9.7169H30.1476C31.1001 11.7573 31.6411 14.0388 31.6411 16.4438C31.6352 18.8429 31.1001 21.1185 30.1476 23.1589Z" fill="#FBFBF9"/>
</g>
</svg>
