<svg xmlns="http://www.w3.org/2000/svg" width="40" height="40" viewBox="0 0 40 40" fill="none">
  <path d="M17.525 34.85C10.4 33.575 5 27.425 5 20C5 11.75 11.75 5 20 5C28.25 5 35 11.75 35 20C35 27.425 29.6 33.575 22.475 34.85L21.65 34.175H18.35L17.525 34.85Z" fill="white"/>
  <path d="M25.8501 24.2001L26.5251 20.0001H22.5501V17.0751C22.5501 15.8751 23.0001 14.9751 24.8001 14.9751H26.7501V11.1501C25.7001 11.0001 24.5001 10.8501 23.4501 10.8501C20.0001 10.8501 17.6001 12.9501 17.6001 16.7001V20.0001H13.8501V24.2001H17.6001V34.7751C18.4251 34.9251 19.2501 35.0001 20.0751 35.0001C20.9001 35.0001 21.7251 34.9251 22.5501 34.7751V24.2001H25.8501Z" fill="#5F3595"/>
</svg>