<svg xmlns="http://www.w3.org/2000/svg" width="30" height="30" viewBox="0 0 30 30" fill="none">
  <path d="M1.06348 15.8958C1.06348 11.8019 2.43477 8.37076 5.13816 5.68045C7.88074 2.99014 11.2502 1.62549 15.2857 1.62549C19.3212 1.62549 22.6907 2.99014 25.3941 5.68045C28.1366 8.37076 29.5079 11.8019 29.5079 15.8958C29.5079 20.8476 27.0004 25.2924 22.9649 27.6318L20.6925 23.7328C23.3959 22.2902 25.1198 19.327 25.1198 15.8958C25.1198 12.9716 24.1795 10.6322 22.338 8.79965C20.4966 7.00611 18.1458 6.10934 15.2857 6.10934C12.4256 6.10934 10.0748 7.00611 8.23336 8.79965C6.39191 10.6322 5.4516 12.9716 5.4516 15.8958C5.4516 19.327 7.17551 22.3292 9.8789 23.7328L7.64566 27.6318C5.6475 26.5011 4.04113 24.8635 2.82656 22.7581C1.65117 20.6916 1.06348 18.3912 1.06348 15.8958Z" fill="#F2C946"/>
  <path d="M10.9391 20.5158C9.77331 19.3104 9.19043 17.8164 9.19043 16.0509C9.19043 14.2853 9.77331 12.7913 10.9391 11.569C12.1215 10.3636 13.5703 9.75244 15.2857 9.75244C17.001 9.75244 18.4499 10.3636 19.6156 11.569C20.798 12.7913 21.3809 14.2853 21.3809 16.0509C21.3809 17.8164 20.798 19.3104 19.6156 20.5158C18.4499 21.7381 17.001 22.3493 15.2857 22.3493C13.5703 22.3493 12.1215 21.7381 10.9391 20.5158ZM13.2539 13.9627C12.721 14.5229 12.4545 15.219 12.4545 16.0509C12.4545 16.8827 12.721 17.5788 13.2539 18.122C13.8035 18.6823 14.4696 18.9539 15.2857 18.9539C16.1017 18.9539 16.7678 18.6823 17.3008 18.122C17.8503 17.5788 18.1168 16.8827 18.1168 16.0509C18.1168 15.219 17.8503 14.5229 17.3008 13.9627C16.7678 13.4194 16.1017 13.1478 15.2857 13.1478C14.4696 13.1478 13.8035 13.4194 13.2539 13.9627Z" fill="#E86E3A"/>
</svg>