<svg xmlns="http://www.w3.org/2000/svg" width="189" height="26" viewBox="0 0 189 26" fill="none">
  <path d="M12.0115 13.5143V0.485722H15.1657V19.6857H12.6972L3.64574 6.65715V19.6857H0.491455V0.485722H2.96003L12.0115 13.5143Z" fill="#E86E3A"/>
  <path d="M29.1215 7.91887V5.97144H32.0838V19.6857H29.1215V17.7109C27.997 19.2743 26.4061 20.0423 24.3215 20.0423C22.429 20.0423 20.8381 19.3566 19.4941 17.9577C18.1501 16.5589 17.4918 14.8309 17.4918 12.8286C17.4918 10.7989 18.1501 9.0983 19.4941 7.69944C20.8381 6.30058 22.429 5.61487 24.3215 5.61487C26.4061 5.61487 27.997 6.38287 29.1215 7.91887ZM21.6884 15.9829C22.5112 16.8057 23.5535 17.2172 24.7878 17.2172C26.0221 17.2172 27.0644 16.8057 27.8872 15.9829C28.7101 15.1326 29.1215 14.0903 29.1215 12.8286C29.1215 11.5669 28.7101 10.5246 27.8872 9.70172C27.0644 8.85144 26.0221 8.44001 24.7878 8.44001C23.5535 8.44001 22.5112 8.85144 21.6884 9.70172C20.8655 10.5246 20.4541 11.5669 20.4541 12.8286C20.4541 14.0903 20.8655 15.1326 21.6884 15.9829Z" fill="#E86E3A"/>
  <path d="M49.964 5.61487C53.0635 5.61487 55.148 7.78172 55.148 11.1829V19.6857H52.1857V11.3749C52.1857 9.4823 51.1709 8.38515 49.5252 8.38515C47.6875 8.38515 46.5355 9.59201 46.5355 12.0057V19.6857H43.5732V11.3749C43.5732 9.4823 42.6406 8.38515 40.9949 8.38515C39.212 8.38515 37.9503 9.61944 37.9503 12.0057V19.6857H34.988V5.97144H37.9503V7.61715C38.828 6.27315 40.1446 5.61487 41.8726 5.61487C43.628 5.61487 44.9172 6.32801 45.7675 7.78172C46.6726 6.32801 48.0715 5.61487 49.964 5.61487Z" fill="#E86E3A"/>
  <path d="M60.5675 3.36572C59.827 4.10629 58.675 4.10629 57.907 3.36572C57.1664 2.59772 57.1664 1.44572 57.907 0.705151C58.6475 -0.0628488 59.8544 -0.0628488 60.595 0.705151C61.3355 1.44572 61.3355 2.59772 60.5675 3.36572ZM60.7321 19.6857H57.7698V5.97144H60.7321V19.6857Z" fill="#E86E3A"/>
  <path d="M70.8367 5.61487C73.991 5.61487 76.103 7.75429 76.103 11.2652V19.6857H73.1407V11.5669C73.1407 9.50972 71.9613 8.38515 70.0687 8.38515C67.9842 8.38515 66.5853 9.67429 66.5853 12.3349V19.6857H63.623V5.97144H66.5853V7.72687C67.4905 6.32801 68.8893 5.61487 70.8367 5.61487Z" fill="#E86E3A"/>
  <path d="M89.6607 8.00115V5.97144H92.5681V19.0549C92.5681 21.1394 91.8824 22.7303 90.511 23.8549C89.1395 24.9794 87.4664 25.528 85.519 25.528C82.3647 25.528 80.1978 24.4309 79.0184 22.2092L81.5692 20.728C82.2824 22.1269 83.6264 22.84 85.5738 22.84C88.1247 22.84 89.6607 21.4412 89.6607 19.0549V17.3817C88.5361 18.9726 86.9452 19.768 84.8881 19.768C82.9407 19.768 81.3224 19.0823 79.9784 17.7109C78.6344 16.312 77.9761 14.6389 77.9761 12.6914C77.9761 10.744 78.6344 9.07087 79.9784 7.69944C81.3224 6.30058 82.9407 5.61487 84.8881 5.61487C86.9452 5.61487 88.5361 6.41029 89.6607 8.00115ZM82.1727 15.7634C83.023 16.5863 84.0652 16.9977 85.2995 16.9977C86.5338 16.9977 87.5761 16.5863 88.399 15.7634C89.2492 14.9406 89.6607 13.9257 89.6607 12.6914C89.6607 11.4572 89.2492 10.4423 88.399 9.61944C87.5761 8.79658 86.5338 8.38515 85.2995 8.38515C84.0652 8.38515 83.023 8.79658 82.1727 9.61944C81.3498 10.4423 80.9384 11.4572 80.9384 12.6914C80.9384 13.9257 81.3498 14.9406 82.1727 15.7634Z" fill="#E86E3A"/>
  <path d="M108.364 20.0423C104.661 20.0423 101.973 18.2594 100.958 15.3246L103.673 13.7337C104.441 15.9006 106.032 16.9703 108.446 16.9703C110.832 16.9703 112.012 15.9554 112.012 14.4469C112.012 13.6514 111.683 13.0754 111.052 12.664C110.421 12.2526 109.269 11.7863 107.651 11.2926C105.813 10.744 104.908 10.3874 103.619 9.53715C102.384 8.65944 101.753 7.39772 101.753 5.66972C101.753 3.96915 102.357 2.62515 103.564 1.63772C104.771 0.622865 106.224 0.12915 107.925 0.12915C110.997 0.12915 113.383 1.72001 114.617 4.35315L111.957 5.88915C111.161 4.10629 109.817 3.20115 107.925 3.20115C106.087 3.20115 104.908 4.13372 104.908 5.58744C104.908 7.01372 105.84 7.67201 108.775 8.57715C109.516 8.82401 110.037 8.98858 110.366 9.12572C110.723 9.23544 111.189 9.42744 111.792 9.67429C112.423 9.92115 112.889 10.1954 113.191 10.4423C114.206 11.2377 115.303 12.5543 115.166 14.392C115.166 16.12 114.535 17.5189 113.273 18.5337C112.039 19.5486 110.393 20.0423 108.364 20.0423Z" fill="#E86E3A"/>
  <path d="M130.766 14.0903H119.849C120.288 16.1749 121.961 17.3269 124.238 17.3269C125.801 17.3269 126.981 16.7509 127.776 15.6263L130.217 17.0526C128.873 19.0549 126.871 20.0423 124.211 20.0423C121.989 20.0423 120.179 19.3566 118.807 18.0126C117.436 16.6412 116.75 14.9132 116.75 12.8286C116.75 10.7714 117.436 9.07087 118.78 7.69944C120.124 6.30058 121.879 5.61487 123.991 5.61487C125.993 5.61487 127.639 6.32801 128.928 7.72687C130.217 9.12572 130.876 10.8537 130.876 12.856C130.876 13.1577 130.848 13.5692 130.766 14.0903ZM119.822 11.6766H127.886C127.475 9.45487 125.911 8.30287 123.964 8.30287C121.769 8.30287 120.233 9.59201 119.822 11.6766Z" fill="#E86E3A"/>
  <path d="M135.896 5.97144V8.27544C136.637 6.57487 138.063 5.72458 140.12 5.72458V8.93372C138.995 8.85144 138.008 9.12572 137.158 9.75658C136.307 10.36 135.896 11.3749 135.896 12.7737V19.6857H132.934V5.97144H135.896Z" fill="#E86E3A"/>
  <path d="M147.246 16.3943L151.058 5.97144H154.295L148.946 19.6857H145.518L140.169 5.97144H143.406L147.246 16.3943Z" fill="#E86E3A"/>
  <path d="M158.42 3.36572C157.679 4.10629 156.527 4.10629 155.759 3.36572C155.019 2.59772 155.019 1.44572 155.759 0.705151C156.5 -0.0628488 157.707 -0.0628488 158.447 0.705151C159.188 1.44572 159.188 2.59772 158.42 3.36572ZM158.585 19.6857H155.622V5.97144H158.585V19.6857Z" fill="#E86E3A"/>
  <path d="M167.949 20.0423C165.892 20.0423 164.164 19.3566 162.765 17.9577C161.393 16.5589 160.708 14.8583 160.708 12.8286C160.708 10.7714 161.393 9.07087 162.765 7.69944C164.164 6.30058 165.892 5.61487 167.949 5.61487C170.609 5.61487 172.968 6.98629 174.065 9.15315L171.514 10.6343C170.884 9.31772 169.567 8.52229 167.921 8.52229C166.714 8.52229 165.7 8.93372 164.877 9.75658C164.081 10.5794 163.67 11.5943 163.67 12.8286C163.67 14.0629 164.081 15.0777 164.877 15.9006C165.7 16.7234 166.714 17.1349 167.921 17.1349C169.54 17.1349 170.911 16.312 171.569 15.0229L174.12 16.4766C172.941 18.6709 170.609 20.0423 167.949 20.0423Z" fill="#E86E3A"/>
  <path d="M188.746 14.0903H177.83C178.269 16.1749 179.942 17.3269 182.218 17.3269C183.782 17.3269 184.961 16.7509 185.757 15.6263L188.198 17.0526C186.854 19.0549 184.852 20.0423 182.191 20.0423C179.969 20.0423 178.159 19.3566 176.788 18.0126C175.416 16.6412 174.73 14.9132 174.73 12.8286C174.73 10.7714 175.416 9.07087 176.76 7.69944C178.104 6.30058 179.86 5.61487 181.972 5.61487C183.974 5.61487 185.62 6.32801 186.909 7.72687C188.198 9.12572 188.856 10.8537 188.856 12.856C188.856 13.1577 188.829 13.5692 188.746 14.0903ZM177.802 11.6766H185.866C185.455 9.45487 183.892 8.30287 181.944 8.30287C179.75 8.30287 178.214 9.59201 177.802 11.6766Z" fill="#E86E3A"/>
</svg>