<svg xmlns="http://www.w3.org/2000/svg" width="20" height="20" viewBox="0 0 20 20" fill="none">
<path opacity="0.2" d="M10 16.875C13.797 16.875 16.875 13.797 16.875 10C16.875 6.20304 13.797 3.125 10 3.125C6.20304 3.125 3.125 6.20304 3.125 10C3.125 13.797 6.20304 16.875 10 16.875Z" fill="#5F3595"/>
<path d="M10 16.875C13.797 16.875 16.875 13.797 16.875 10C16.875 6.20304 13.797 3.125 10 3.125C6.20304 3.125 3.125 6.20304 3.125 10C3.125 13.797 6.20304 16.875 10 16.875Z" stroke="#5F3595" stroke-width="2" stroke-linecap="round" stroke-linejoin="round"/>
<path d="M14.3885 4.70771C16.5571 4.11759 18.1811 4.17012 18.6603 5.00001C19.5232 6.49467 16.3454 9.94491 11.5625 12.7063C6.77959 15.4678 2.20271 16.4947 1.33976 15C0.860711 14.1703 1.62691 12.7379 3.22169 11.1552" stroke="#5F3595" stroke-width="2" stroke-linecap="round" stroke-linejoin="round"/>
</svg>