<svg width="85" height="10" viewBox="0 0 85 10" fill="none" xmlns="http://www.w3.org/2000/svg">
<g id="POWERED BY">
<path d="M0.988281 9.57589V1.00777H4.42638C5.08733 1.00777 5.65042 1.13188 6.11564 1.38011C6.58086 1.62555 6.93545 1.96722 7.17941 2.40511C7.4262 2.84021 7.5496 3.34225 7.5496 3.91122C7.5496 4.4802 7.42478 4.98224 7.17515 5.41734C6.92552 5.85244 6.56384 6.19131 6.09011 6.43396C5.61921 6.67662 5.04904 6.79794 4.37957 6.79794H2.18821V5.34621H4.08172C4.43631 5.34621 4.72849 5.28625 4.95826 5.16632C5.19087 5.0436 5.36391 4.87486 5.47738 4.6601C5.59368 4.44255 5.65184 4.19292 5.65184 3.91122C5.65184 3.62673 5.59368 3.3785 5.47738 3.16653C5.36391 2.95177 5.19087 2.78582 4.95826 2.66868C4.72565 2.54875 4.43063 2.48878 4.07321 2.48878H2.83073V9.57589H0.988281Z" fill="#D8D8D8"/>
<path d="M17.2337 5.29183C17.2337 6.22618 17.0535 7.02107 16.6933 7.67651C16.3358 8.33195 15.8479 8.83259 15.2295 9.17844C14.614 9.5215 13.9218 9.69303 13.1531 9.69303C12.3786 9.69303 11.6836 9.5201 11.0681 9.17426C10.4525 8.82841 9.96601 8.32776 9.60858 7.67233C9.25116 7.01689 9.07244 6.22339 9.07244 5.29183C9.07244 4.35748 9.25116 3.56258 9.60858 2.90715C9.96601 2.25171 10.4525 1.75246 11.0681 1.4094C11.6836 1.06355 12.3786 0.890625 13.1531 0.890625C13.9218 0.890625 14.614 1.06355 15.2295 1.4094C15.8479 1.75246 16.3358 2.25171 16.6933 2.90715C17.0535 3.56258 17.2337 4.35748 17.2337 5.29183ZM15.3657 5.29183C15.3657 4.68659 15.2735 4.17619 15.0891 3.76061C14.9076 3.34503 14.6508 3.02987 14.3189 2.81511C13.987 2.60034 13.5984 2.49296 13.1531 2.49296C12.7077 2.49296 12.3191 2.60034 11.9872 2.81511C11.6553 3.02987 11.3971 3.34503 11.2127 3.76061C11.0312 4.17619 10.9404 4.68659 10.9404 5.29183C10.9404 5.89706 11.0312 6.40747 11.2127 6.82304C11.3971 7.23862 11.6553 7.55379 11.9872 7.76855C12.3191 7.98331 12.7077 8.09069 13.1531 8.09069C13.5984 8.09069 13.987 7.98331 14.3189 7.76855C14.6508 7.55379 14.9076 7.23862 15.0891 6.82304C15.2735 6.40747 15.3657 5.89706 15.3657 5.29183Z" fill="#D8D8D8"/>
<path d="M20.7117 9.57589L18.2182 1.00777H20.2309L21.6734 6.9611H21.7457L23.3371 1.00777H25.0604L26.6475 6.97366H26.7241L28.1666 1.00777H30.1792L27.6858 9.57589H25.8901L24.2307 3.97398H24.1626L22.5074 9.57589H20.7117Z" fill="#D8D8D8"/>
<path d="M31.6446 9.57589V1.00777H37.5166V2.50133H33.4871V4.54295H37.2145V6.03652H33.4871V8.08232H37.5337V9.57589H31.6446Z" fill="#D8D8D8"/>
<path d="M39.4607 9.57589V1.00777H42.8988C43.557 1.00777 44.1186 1.12352 44.5838 1.35501C45.0519 1.58372 45.4079 1.90865 45.6519 2.3298C45.8987 2.74817 46.0221 3.24044 46.0221 3.80663C46.0221 4.37561 45.8972 4.86509 45.6476 5.27509C45.398 5.6823 45.0363 5.99468 44.5626 6.21223C44.0917 6.42978 43.5215 6.53856 42.852 6.53856H40.55V5.08264H42.5542C42.9059 5.08264 43.1981 5.03523 43.4307 4.9404C43.6633 4.84557 43.8364 4.70333 43.9498 4.51367C44.0661 4.32401 44.1243 4.08833 44.1243 3.80663C44.1243 3.52214 44.0661 3.28228 43.9498 3.08704C43.8364 2.89181 43.6619 2.74398 43.4265 2.64358C43.1939 2.54038 42.9003 2.48878 42.5457 2.48878H41.3032V9.57589H39.4607ZM44.1669 5.67672L46.3327 9.57589H44.2988L42.1797 5.67672H44.1669Z" fill="#D8D8D8"/>
<path d="M47.8034 9.57589V1.00777H53.6754V2.50133H49.6459V4.54295H53.3733V6.03652H49.6459V8.08232H53.6924V9.57589H47.8034Z" fill="#D8D8D8"/>
<path d="M58.7087 9.57589H55.6195V1.00777H58.7342C59.6108 1.00777 60.3653 1.1793 60.9979 1.52236C61.6305 1.86263 62.117 2.35211 62.4574 2.99082C62.8006 3.62952 62.9723 4.39374 62.9723 5.28346C62.9723 6.17597 62.8006 6.94298 62.4574 7.58447C62.117 8.22596 61.6277 8.71824 60.9894 9.0613C60.354 9.40436 59.5937 9.57589 58.7087 9.57589ZM57.4619 8.02375H58.6321C59.1767 8.02375 59.6349 7.92892 60.0065 7.73926C60.3809 7.54681 60.6618 7.24978 60.849 6.84815C61.039 6.44373 61.1341 5.92216 61.1341 5.28346C61.1341 4.65033 61.039 4.13296 60.849 3.73132C60.6618 3.32969 60.3823 3.03405 60.0107 2.84439C59.6391 2.65473 59.181 2.5599 58.6363 2.5599H57.4619V8.02375Z" fill="#D8D8D8"/>
<path d="M68.0689 9.57589V1.00777H71.558C72.1991 1.00777 72.7339 1.1012 73.1622 1.28807C73.5906 1.47494 73.9125 1.73433 74.1281 2.06623C74.3437 2.39535 74.4515 2.77466 74.4515 3.20418C74.4515 3.53888 74.3834 3.83313 74.2472 4.08694C74.1111 4.33795 73.9239 4.54435 73.6856 4.70612C73.4501 4.86509 73.1806 4.97805 72.8771 5.04499V5.12866C73.209 5.14261 73.5196 5.23465 73.809 5.40479C74.1012 5.57492 74.338 5.81339 74.5196 6.12019C74.7011 6.4242 74.7919 6.78679 74.7919 7.20794C74.7919 7.66256 74.677 8.06838 74.4472 8.42538C74.2203 8.7796 73.8841 9.0599 73.4388 9.2663C72.9934 9.47269 72.4445 9.57589 71.7921 9.57589H68.0689ZM69.9113 8.09487H71.4134C71.9268 8.09487 72.3013 7.99865 72.5367 7.8062C72.7722 7.61096 72.8899 7.35158 72.8899 7.02804C72.8899 6.79097 72.8317 6.58179 72.7154 6.40049C72.5991 6.2192 72.4332 6.07696 72.2176 5.97376C72.0048 5.87057 71.7509 5.81897 71.4559 5.81897H69.9113V8.09487ZM69.9113 4.59316H71.2772C71.5297 4.59316 71.7538 4.54993 71.9495 4.46346C72.1481 4.37421 72.3041 4.2487 72.4176 4.08694C72.5339 3.92517 72.592 3.73132 72.592 3.50541C72.592 3.19582 72.48 2.94619 72.2559 2.75653C72.0346 2.56687 71.7197 2.47205 71.3113 2.47205H69.9113V4.59316Z" fill="#D8D8D8"/>
<path d="M75.9594 1.00777H78.0232L80.0103 4.69775H80.0954L82.0825 1.00777H84.1462L80.9677 6.54692V9.57589H79.138V6.54692L75.9594 1.00777Z" fill="#D8D8D8"/>
</g>
</svg>
