
<svg width="36" height="30" viewBox="0 0 36 30" fill="none" xmlns="http://www.w3.org/2000/svg">
<g id="Twitter bird">
<g id="Group 469264">
<path id="Vector" d="M11.4144 29.419C24.8113 29.419 32.1376 18.3229 32.1376 8.7011C32.1376 8.3858 32.1311 8.07212 32.117 7.76006C33.5424 6.72871 34.7726 5.45236 35.7501 3.98943C34.4453 4.56919 33.041 4.95967 31.5674 5.13598C33.0713 4.23442 34.2257 2.80826 34.7699 1.10845C33.3401 1.95646 31.7762 2.55408 30.1447 2.87587C28.8161 1.46053 26.9243 0.575195 24.8286 0.575195C20.8066 0.575195 17.5446 3.83637 17.5446 7.85579C17.5446 8.42744 17.6084 8.98287 17.7334 9.51612C11.68 9.21164 6.31202 6.31389 2.72003 1.90833C2.07304 3.01973 1.73278 4.28255 1.73386 5.5681C1.73386 8.09429 3.01973 10.3247 4.97531 11.6291C3.81873 11.594 2.68758 11.2814 1.67652 10.7184C1.67544 10.7492 1.67544 10.7789 1.67544 10.8114C1.67544 14.3376 4.18604 17.2824 7.51891 17.9492C6.89302 18.1196 6.24711 18.2061 5.5985 18.2056C5.13922 18.2056 4.68048 18.1612 4.22986 18.0741C5.15707 20.9676 7.84619 23.073 11.0335 23.1314C8.54079 25.0849 5.4005 26.2482 1.98757 26.2482C1.40063 26.2482 0.820174 26.2146 0.25 26.1476C3.47359 28.213 7.3009 29.4185 11.4149 29.4185" fill="white"/>
</g>
</g>
</svg>
