<svg width="90" height="29" viewBox="0 0 90 29" fill="none" xmlns="http://www.w3.org/2000/svg">
<g id="web23logo 2" clip-path="url(#clip0_435_1943)">
<g id="Assets">
<g id="Web23_Logo-Horizontal_Production">
<g id="Web23_Logo-Horizontal_White">
<path id="Web23_Logo-Circle" fill-rule="evenodd" clip-rule="evenodd" d="M14.9676 0.583496C22.6882 0.583496 28.9469 6.7372 28.9469 14.3282C28.9469 21.9192 22.6882 28.0729 14.9676 28.0729C7.24704 28.0729 0.988281 21.9192 0.988281 14.3282C0.988281 6.7372 7.24704 0.583496 14.9676 0.583496ZM20.2409 14.6447L19.2833 15.5862L19.7621 16.057L19.8049 16.0998C21.2035 17.5203 21.1893 19.7866 19.7621 21.1898C18.3205 22.6072 15.9832 22.6072 14.5416 21.1898L14.0628 20.7191L13.1053 21.6606L13.584 22.1313L13.6435 22.1889C15.6183 24.0685 18.7689 24.0493 20.7197 22.1313C22.6901 20.194 22.6901 17.0528 20.7197 15.1155L20.2409 14.6447ZM14.0628 12.1286L7.936 18.1526L8.41479 19.2892H17.829V17.9576H10.0495L15.0204 13.0701L14.0628 12.1286ZM21.5204 9.36721H12.1062V10.6987L19.8857 10.6987L14.9148 15.5862L15.8724 16.5278L21.9992 10.5037L21.5204 9.36721ZM16.2917 6.46749C14.3169 4.58785 11.1663 4.60703 9.21551 6.52503C7.24506 8.46241 7.24506 11.6035 9.21551 13.5409L9.69431 14.0117L10.6519 13.0701L10.1731 12.5994L10.1303 12.5566C8.73167 11.1361 8.74594 8.86977 10.1731 7.46656C11.6147 6.04917 13.952 6.04917 15.3936 7.46656L15.8724 7.93732L16.83 6.99579L16.3512 6.52503L16.2917 6.46749Z" fill="white"/>
<path id="Web23_Logo-Text" d="M39.1579 19.2748L35.8979 9.49495H38.279L41.108 18.1567H39.9147L42.874 9.49495H45.0057L47.8405 18.1567H46.6925L49.6008 9.49495H51.7975L48.5376 19.2748H46.0747L43.5545 11.6697H44.2118L41.6295 19.2748H39.1579ZM54.9473 13.4459H59.738V15.1999H54.9473V13.4459ZM55.0854 17.454H60.5154V19.2748H52.796V9.49495H60.3216V11.3158H55.0854V17.454ZM61.9364 19.2748V9.49495H66.8237C68.0785 9.49495 69.0245 9.72777 69.6618 10.1934C70.299 10.659 70.6176 11.2756 70.6176 12.0432C70.6176 12.5537 70.4886 12.9966 70.2306 13.372C69.9725 13.7473 69.6185 14.0383 69.1683 14.245C68.7182 14.4516 68.2031 14.5549 67.623 14.5549L67.8916 13.9775C68.5233 13.9775 69.0809 14.0791 69.5644 14.2821C70.0479 14.4851 70.4272 14.7821 70.7024 15.1732C70.9775 15.5642 71.1151 16.0411 71.1151 16.6037C71.1151 17.4456 70.777 18.1013 70.1008 18.5707C69.4247 19.0401 68.4276 19.2748 67.1095 19.2748H61.9364ZM64.263 17.5563H66.9669C67.5614 17.5563 68.0144 17.4588 68.3259 17.264C68.6374 17.0691 68.7932 16.7646 68.7932 16.3504C68.7932 15.9363 68.6374 15.6304 68.3259 15.4327C68.0144 15.2351 67.5614 15.1363 66.9669 15.1363H64.095V13.4892H66.5624C67.1261 13.4892 67.5562 13.3927 67.8524 13.1996C68.1487 13.0066 68.2969 12.7179 68.2969 12.3335C68.2969 11.9455 68.1487 11.656 67.8524 11.4648C67.5562 11.2737 67.1261 11.1781 66.5624 11.1781H64.263V17.5563ZM72.5983 19.2371V17.778L76.4503 14.2186C76.7468 13.9429 76.9682 13.6994 77.1146 13.4879C77.261 13.2764 77.359 13.0827 77.4085 12.9066C77.4579 12.7305 77.4827 12.5642 77.4827 12.4077C77.4827 12.0256 77.349 11.7278 77.0816 11.5143C76.8142 11.3008 76.4189 11.1941 75.8956 11.1941C75.4696 11.1941 75.0793 11.275 74.7247 11.4369C74.3701 11.5988 74.071 11.8455 73.8274 12.1768L72.152 11.1204C72.53 10.5629 73.0596 10.1211 73.741 9.79513C74.4224 9.46915 75.2106 9.30615 76.1058 9.30615C76.8479 9.30615 77.497 9.42333 78.053 9.65768C78.6091 9.89204 79.0407 10.2245 79.3481 10.6549C79.6554 11.0854 79.8091 11.5954 79.8091 12.1849C79.8091 12.5011 79.7674 12.816 79.6838 13.1295C79.6003 13.443 79.438 13.7727 79.1969 14.1187C78.9558 14.4647 78.6018 14.8516 78.1348 15.2794L74.9479 18.2151L74.5156 17.391H80.1402V19.2371H72.5983ZM84.8694 19.4259C84.1732 19.4259 83.4848 19.3346 82.8041 19.1521C82.1234 18.9695 81.5427 18.7116 81.0619 18.3784L81.962 16.6496C82.344 16.925 82.7861 17.1419 83.2883 17.3003C83.7904 17.4588 84.2995 17.538 84.8155 17.538C85.3909 17.538 85.8458 17.4261 86.1801 17.2022C86.5143 16.9784 86.6815 16.6708 86.6815 16.2794C86.6815 15.9082 86.5338 15.614 86.2383 15.3967C85.9429 15.1795 85.4665 15.0708 84.809 15.0708H83.7667V13.5867L86.5375 10.4973L86.8027 11.3133H81.5582V9.49495H88.5559V10.954L85.7849 14.0432L84.6207 13.3859H85.2813C86.5135 13.3859 87.4433 13.6561 88.0707 14.1964C88.698 14.7368 89.0117 15.4283 89.0117 16.2709C89.0117 16.8233 88.8639 17.3399 88.5683 17.8206C88.2727 18.3013 87.8199 18.689 87.2098 18.9838C86.5997 19.2785 85.8195 19.4259 84.8694 19.4259Z" fill="white"/>
</g>
</g>
</g>
</g>
<defs>
<clipPath id="clip0_435_1943">
<rect width="88.0236" height="27.4894" fill="white" transform="translate(0.988281 0.583496)"/>
</clipPath>
</defs>
</svg>
