<svg xmlns="http://www.w3.org/2000/svg" width="38" height="32" viewBox="0 0 38 32" fill="none">
  <path d="M26.6 -0.00488281H11.4C8.37267 -0.00488281 5.472 1.21736 3.344 3.39167C1.20333 5.55311 0 7.99151 0 11.5743C0 11.105 0 20.3528 0 19.8964C0.038 23.4277 1.20968 25.6891 3 27.9323C5.14067 30.6144 8.5 31.9951 11.5 31.9951H26.7C30 31.9951 33.372 30.6144 35.5 27.9323C37.5146 25.393 37.9873 23.3891 38 19.8192C38 20.3142 38 11.0793 38 11.5743C38 7.99151 36.7967 5.55311 34.656 3.39167C32.5153 1.21736 29.6147 -0.00488281 26.6 -0.00488281Z" fill="#F2C946"/>
</svg>